<?xml version="1.0" standalone="no"?>
<!DOCTYPE svg PUBLIC "-//W3C//DTD SVG 20010904//EN"
 "http://www.w3.org/TR/2001/REC-SVG-20010904/DTD/svg10.dtd">
<svg version="1.0" xmlns="http://www.w3.org/2000/svg"
 width="1024.000000pt" height="1024.000000pt" viewBox="0 0 1024.000000 1024.000000"
 preserveAspectRatio="xMidYMid meet">

<g transform="translate(0.000000,1024.000000) scale(0.100000,-0.100000)"
fill="#000000" stroke="none">
<path d="M3625 8404 c-61 -9 -171 -37 -197 -50 -36 -19 -51 -49 -45 -93 4 -31
83 -229 199 -498 17 -40 30 -74 27 -76 -2 -1 -29 -14 -59 -28 -76 -36 -111
-68 -145 -131 -24 -44 -29 -65 -30 -123 0 -103 47 -186 147 -260 l27 -20 -79
-89 c-143 -159 -281 -379 -373 -596 -56 -130 -77 -201 -77 -255 0 -42 8 -52
63 -69 9 -3 17 -15 17 -26 0 -18 -6 -20 -72 -20 -84 0 -101 -8 -96 -41 2 -18
12 -26 41 -33 26 -7 37 -15 37 -28 0 -17 -12 -18 -169 -18 -141 0 -172 -3
-185 -16 -41 -40 -11 -51 162 -60 148 -7 153 -8 150 -28 -3 -21 -7 -21 -271
-23 -147 -1 -275 -4 -283 -7 -10 -4 -14 -16 -12 -33 l3 -28 260 -5 260 -5 3
-22 3 -23 -160 0 c-88 0 -171 -4 -185 -10 -28 -10 -35 -43 -13 -57 6 -4 123
-10 259 -13 253 -5 299 -13 247 -41 -17 -9 -145 -14 -479 -19 -303 -5 -469
-12 -496 -20 -52 -15 -130 -74 -166 -125 -59 -84 -58 -58 -58 -1156 0 -891 2
-1012 16 -1060 25 -86 85 -155 169 -195 46 -22 63 -24 201 -24 l151 0 22 -59
c27 -76 84 -133 158 -161 75 -28 237 -39 553 -40 305 0 420 -7 420 -26 0 -11
-65 -14 -326 -16 -309 -3 -326 -4 -340 -22 -16 -23 -17 -26 -4 -46 8 -13 65
-15 397 -18 213 -1 398 -4 411 -7 12 -3 22 -11 22 -19 0 -10 -76 -14 -391 -20
-215 -4 -398 -10 -405 -13 -11 -4 -21 -57 -11 -65 1 -1 151 -5 332 -8 322 -5
330 -6 330 -25 0 -20 -8 -20 -408 -25 -433 -5 -426 -5 -427 -52 0 -33 -17 -33
908 -36 326 -2 373 -4 379 -17 3 -9 3 -18 0 -21 -3 -3 -250 -9 -548 -12 -532
-7 -542 -7 -555 -28 -12 -17 -12 -23 0 -40 14 -18 35 -19 681 -22 652 -3 667
-3 650 -22 -9 -10 -19 -36 -22 -58 -4 -33 -1 -44 26 -75 93 -105 388 -196 741
-228 158 -14 569 -6 707 15 154 23 312 66 428 117 50 22 139 80 157 102 22 27
23 86 3 113 -8 10 -15 22 -15 27 0 4 264 7 588 8 323 0 610 4 637 7 43 6 50
10 53 31 2 13 -1 28 -8 35 -8 8 -156 13 -498 17 -583 8 -542 7 -542 18 0 26
50 29 626 34 330 4 608 9 617 13 23 8 22 51 -2 64 -13 6 -157 10 -400 10
l-381 0 0 24 0 25 330 3 c281 3 332 5 340 18 13 20 12 23 -4 45 -12 17 -38 19
-410 23 -358 4 -397 6 -394 21 3 14 47 17 418 21 228 3 416 7 418 8 1 1 2 16
2 32 0 24 -6 33 -26 40 -14 6 -156 10 -330 10 -293 0 -345 5 -281 29 12 4 198
11 412 14 433 6 495 13 579 69 51 33 94 97 103 151 l5 35 162 4 c142 3 166 6
201 25 56 30 119 99 147 158 l23 50 0 1045 0 1045 -26 55 c-31 63 -68 106
-126 144 -81 54 -101 55 -704 56 -307 1 -567 4 -579 7 -14 4 -20 12 -18 27 3
21 6 21 358 27 195 3 363 9 373 14 26 11 18 48 -13 56 -14 4 -82 7 -152 8
l-128 1 0 25 0 25 223 0 c122 0 228 4 236 9 9 6 11 18 8 33 -7 25 -8 25 -158
31 -84 4 -194 7 -246 7 -86 0 -93 1 -93 20 0 18 7 20 83 21 120 1 171 10 175
32 8 40 -13 47 -154 47 -83 0 -134 4 -134 10 0 22 4 25 44 35 34 8 42 14 44
37 4 32 -8 37 -112 40 -73 3 -98 20 -54 37 37 14 53 38 38 56 -18 21 -49 19
-104 -9 -47 -24 -47 -24 -44 -3 4 28 63 67 102 67 36 0 76 -24 76 -46 0 -8 5
-14 10 -14 37 0 -18 185 -115 388 -115 239 -263 442 -465 639 l-68 66 48 56
c27 31 110 128 185 216 75 88 160 187 188 219 29 32 62 76 75 98 l23 38 -21
35 c-28 45 -112 120 -150 134 -28 9 -33 7 -64 -24 l-34 -33 -27 28 c-32 34
-74 53 -106 48 -15 -2 -62 -51 -142 -148 -65 -80 -162 -196 -216 -259 -53 -63
-99 -119 -103 -125 -5 -7 -15 -3 -30 11 -36 33 -178 118 -296 177 -218 109
-437 180 -668 216 -243 39 -560 28 -784 -26 l-70 -17 -97 100 c-183 189 -378
311 -598 373 -97 28 -128 32 -260 35 -82 2 -163 1 -180 -1z m364 -118 c286
-62 571 -267 755 -543 89 -134 177 -340 176 -412 -1 -26 -1 -26 -14 5 -16 36
-32 49 -41 34 -3 -5 1 -10 9 -10 9 0 16 -8 16 -17 0 -15 -2 -16 -10 -3 -5 8
-10 11 -10 5 0 -5 -5 -3 -10 5 -5 8 -7 23 -4 34 4 12 2 16 -5 12 -6 -4 -12 0
-12 8 -1 9 -3 21 -4 26 -1 6 -3 19 -4 31 0 11 -5 18 -10 15 -5 -3 -12 6 -15
19 -4 16 -11 23 -18 19 -7 -4 -8 -3 -4 4 10 16 -32 94 -46 86 -7 -4 -8 -3 -4
4 12 20 -44 108 -59 94 -5 -4 -5 -1 0 7 6 10 -1 22 -21 39 -16 13 -23 21 -15
17 9 -6 12 -4 7 3 -4 7 -13 12 -21 12 -8 0 -17 5 -21 12 -4 7 -3 8 4 4 7 -4
12 -2 12 3 0 6 -5 11 -11 11 -6 0 -9 6 -6 14 8 19 -3 28 -19 15 -9 -7 -12 -6
-10 7 3 21 -51 84 -71 84 -8 0 -11 5 -8 10 6 9 -7 14 -27 11 -4 0 -5 5 -2 13
6 16 -34 44 -58 41 -9 -2 -29 11 -45 28 -19 20 -22 28 -10 24 24 -9 21 0 -4
14 -15 8 -19 8 -15 0 4 -6 2 -11 -4 -11 -6 0 -13 7 -16 15 -4 8 -10 12 -15 9
-5 -3 -9 -1 -9 5 0 5 -26 22 -57 36 -32 15 -78 36 -102 47 -24 12 -63 23 -87
26 -27 3 -41 9 -37 15 4 6 0 8 -10 4 -20 -7 -156 21 -175 36 -9 7 -11 6 -6 -8
6 -15 2 -17 -37 -10 -24 4 -46 7 -49 8 -3 0 -23 -5 -45 -11 -22 -6 -52 -10
-67 -8 -15 2 -25 -1 -22 -5 4 -8 -25 -13 -63 -12 -7 1 -10 -3 -7 -8 3 -5 -1
-9 -9 -9 -14 0 -27 28 -27 62 0 52 315 73 499 34z m-35 -152 c86 -17 229 -79
323 -140 72 -48 173 -125 173 -133 0 -3 29 -37 64 -74 126 -134 218 -326 241
-504 7 -51 6 -53 -18 -53 -23 0 -25 4 -29 63 -9 108 -52 167 -122 167 -30 0
-161 -35 -212 -56 -19 -8 -34 -10 -34 -5 0 5 -12 12 -27 16 -16 4 -22 10 -15
12 6 3 12 10 12 17 0 7 9 21 20 31 11 10 20 23 20 29 0 6 -10 -1 -21 -16 -11
-16 -28 -28 -37 -28 -12 1 -8 9 16 31 19 17 40 28 48 25 8 -3 14 1 14 8 0 8
10 16 22 19 12 4 20 9 16 12 -7 7 -94 -30 -102 -44 -4 -6 -17 -16 -28 -22 -19
-10 -20 -9 -15 11 5 18 0 24 -24 33 -16 6 -29 16 -29 22 0 5 -4 4 -9 -4 -8
-12 -11 -12 -25 1 -8 9 -12 19 -8 23 4 5 -1 5 -11 2 -31 -12 -40 4 -17 28 13
14 19 29 15 36 -5 7 -4 10 3 5 6 -3 16 3 23 15 10 20 9 21 -7 14 -11 -4 -27
-8 -36 -9 -13 0 -14 -4 -7 -18 7 -13 4 -23 -11 -38 -19 -19 -50 -28 -50 -14 0
6 96 147 121 179 59 71 68 80 69 63 0 -10 4 -18 9 -18 5 0 7 9 4 20 -3 11 0
20 6 20 6 0 11 -6 11 -14 0 -8 4 -18 10 -21 6 -3 7 1 4 9 -9 22 6 20 32 -5
l23 -22 -22 -30 c-12 -16 -42 -50 -67 -76 -25 -25 -34 -38 -20 -29 47 32 130
78 140 78 5 0 10 5 10 10 0 6 5 10 10 10 6 0 10 -9 10 -20 0 -13 -30 -42 -94
-89 -97 -72 -138 -112 -73 -72 64 40 177 91 199 91 20 0 17 -6 -22 -47 -34
-35 -38 -42 -17 -30 54 34 76 38 87 16 10 -17 6 -22 -34 -40 -42 -18 -67 -39
-30 -25 12 5 15 2 9 -11 -4 -11 5 -7 25 12 31 29 32 29 46 11 8 -11 14 -15 14
-10 0 6 -5 15 -11 21 -8 8 -7 13 2 18 8 5 10 4 5 -3 -4 -7 -2 -12 3 -12 16 0
14 -35 -2 -49 -8 -6 -18 -7 -22 -3 -5 4 -5 2 -1 -5 3 -6 2 -14 -3 -17 -5 -3
-11 1 -15 9 -3 8 2 18 11 23 9 5 11 12 6 15 -6 4 -21 -5 -34 -19 -18 -19 -19
-23 -6 -18 12 4 17 2 15 -7 -2 -8 -34 -32 -72 -53 -39 -22 -65 -41 -59 -43 18
-6 225 69 245 89 36 36 20 117 -39 196 -13 17 -21 37 -18 42 4 6 3 9 -2 8 -4
-1 -39 30 -77 70 -97 101 -171 133 -223 97 -18 -13 -99 -144 -151 -245 -7 -14
-22 -36 -33 -50 -27 -35 37 105 90 195 61 103 56 169 -15 228 -87 73 -388 111
-484 62 -32 -17 -40 -33 -40 -83 l0 -37 -19 41 c-35 76 -35 81 -2 98 67 35
221 39 375 10z m-204 -84 c0 -5 6 -7 14 -4 13 5 24 -32 25 -86 1 -24 13 -115
16 -118 2 -2 6 38 10 87 4 50 11 91 16 91 5 0 9 -6 10 -12 0 -10 2 -10 5 -1 3
7 13 9 22 6 18 -7 17 -5 -12 17 -16 12 -18 12 -11 1 6 -10 4 -12 -4 -6 -24 14
4 25 32 13 l27 -13 -5 -115 -5 -115 19 71 c22 91 41 135 52 128 5 -3 9 0 9 5
0 22 20 10 21 -11 1 -18 2 -19 6 -5 2 9 8 15 13 12 5 -3 7 -13 4 -23 -5 -16
-5 -16 9 1 27 33 28 17 1 -30 l-27 -48 40 44 c39 44 40 44 46 21 3 -13 3 -29
-2 -34 -12 -16 -20 -57 -10 -50 5 3 9 12 9 20 0 8 2 14 4 14 2 0 13 3 23 6 16
6 16 5 -2 -9 -11 -9 -15 -17 -8 -17 7 0 9 -9 5 -22 -8 -31 -28 -69 -33 -63 -3
2 -13 -17 -22 -43 -13 -38 -14 -43 -2 -28 8 11 15 26 15 33 0 7 4 13 9 13 12
0 -44 -138 -66 -162 -18 -20 -43 -24 -43 -7 0 8 -5 7 -15 -1 -13 -11 -18 -11
-28 0 -9 10 -9 11 1 6 7 -5 12 -1 12 9 0 9 -6 15 -12 12 -7 -2 -13 -14 -12
-26 1 -28 -14 -27 -19 2 -3 20 -4 19 -12 -8 -17 -63 -45 -49 -45 23 0 26 -4
41 -10 37 -5 -3 -7 -32 -4 -68 5 -58 4 -61 -11 -42 -9 11 -25 52 -36 90 -11
39 -39 133 -63 210 -25 77 -44 151 -45 164 0 22 1 22 14 5 7 -10 11 -23 8 -28
-4 -5 -1 -6 5 -2 6 4 9 14 6 24 -5 15 -4 15 9 -1 13 -16 15 -16 21 -2 3 9 11
13 17 9 8 -4 8 0 0 15 -8 14 -8 21 -1 21 5 0 10 -4 10 -10z m705 -72 c5 4 5 1
1 -6 -6 -10 -11 -10 -22 -1 -8 6 -14 17 -14 23 0 6 7 3 14 -6 7 -10 17 -14 21
-10z m2666 -32 c33 -28 23 -36 -42 -36 -43 0 -46 5 -23 38 19 28 29 28 65 -2z
m208 -27 c26 -21 25 -28 -5 -30 -59 -6 -81 10 -52 39 17 17 29 15 57 -9z
m-229 -38 c0 -10 -108 -47 -115 -39 -2 2 2 14 11 26 12 17 25 22 60 22 24 0
44 -4 44 -9z m199 -23 c44 -13 28 -23 -52 -33 l-59 -7 23 31 c15 21 28 29 39
25 8 -3 31 -11 49 -16z m-1689 -11 c308 -54 551 -147 822 -315 101 -62 106
-67 91 -84 -22 -24 -25 -24 -91 21 -93 64 -337 184 -466 230 -151 53 -370 97
-551 111 -155 12 -244 8 -443 -21 l-134 -19 -18 23 -18 22 61 13 c157 33 254
41 457 37 118 -2 241 -10 290 -18z m-1921 -72 c0 -5 -6 1 -14 15 -8 14 -14 30
-14 35 0 6 6 -1 14 -15 8 -14 14 -29 14 -35z m3358 28 c-12 -7 -29 -12 -37
-13 -8 0 -42 -14 -75 -32 l-60 -31 40 45 c39 44 42 45 97 44 50 -1 54 -2 35
-13z m178 -23 c19 0 35 -4 35 -9 0 -9 -16 -12 -110 -26 l-45 -7 35 36 c28 30
36 33 43 21 5 -9 22 -15 42 -15z m-3515 -55 c0 -5 -5 -3 -10 5 -5 8 -10 20
-10 25 0 6 5 3 10 -5 5 -8 10 -19 10 -25z m3246 -16 c-15 -12 -48 -24 -74 -27
-47 -5 -47 -5 -29 16 11 11 24 19 30 17 7 -3 28 0 47 4 53 13 55 13 26 -10z
m212 9 c12 1 22 -2 22 -6 0 -15 -16 -28 -35 -29 -11 -1 -40 -5 -65 -9 l-45 -7
29 32 c22 23 35 29 50 24 12 -3 31 -6 44 -5z m-268 -75 c0 -13 -60 -43 -84
-43 -32 0 -39 11 -18 31 17 18 102 27 102 12z m205 -24 c-64 -30 -121 -23 -91
10 11 12 29 15 73 12 l58 -4 -40 -18z m-1811 -61 c17 -42 29 -57 59 -71 20
-10 37 -24 37 -30 0 -7 -22 -25 -48 -42 -26 -16 -48 -36 -48 -42 -4 -37 -4
-38 -14 -23 -7 12 -10 8 -11 -15 0 -16 -4 -39 -8 -49 -6 -15 -11 -6 -24 41
-18 63 -43 95 -92 113 l-30 12 21 16 c12 9 35 24 51 33 22 12 34 30 47 73 21
66 28 64 60 -16z m-1678 22 c17 0 74 -93 75 -121 0 -21 1 -22 8 -5 7 17 9 16
19 -14 7 -18 9 -49 6 -67 -6 -32 -8 -33 -51 -33 -78 0 -143 49 -143 108 0 36
-19 34 -29 -3 -25 -91 58 -205 149 -205 28 0 30 2 20 20 -10 18 -8 20 17 20
71 -1 68 -45 -4 -68 -117 -38 -249 92 -228 223 13 83 81 162 130 150 11 -3 25
-5 31 -5z m3212 0 c7 0 10 -4 7 -10 -3 -5 -15 -10 -26 -10 -10 0 -18 -6 -16
-12 1 -8 -12 -14 -36 -16 -37 -3 -38 -2 -27 18 8 14 18 20 30 17 14 -3 17 -1
13 11 -5 12 -1 14 18 9 13 -4 30 -7 37 -7z m-2064 -16 c3 -8 2 -12 -4 -9 -6 3
-10 10 -10 16 0 14 7 11 14 -7z m2291 6 c32 -7 29 -10 -41 -29 -53 -14 -64
-14 -64 2 0 34 38 44 105 27z m-3255 -35 c7 -9 8 -15 2 -15 -5 0 -12 7 -16 15
-3 8 -4 15 -2 15 2 0 9 -7 16 -15z m2108 -35 c23 -28 29 -40 18 -40 -9 0 -23
-14 -31 -30 -9 -17 -20 -28 -25 -25 -14 9 -12 32 3 39 8 3 7 5 -3 4 -21 -3
-60 12 -60 22 0 4 7 10 15 14 8 3 20 17 27 31 6 14 14 25 17 25 3 0 21 -18 39
-40z m-1807 4 c83 -42 129 -113 129 -199 0 -97 2 -96 -163 -89 -94 4 -147 11
-156 19 -8 8 -16 42 -18 82 -5 61 -2 72 21 107 33 48 26 59 -14 21 -46 -44
-65 -104 -52 -167 12 -64 8 -74 -13 -26 -29 72 -29 108 2 167 32 61 65 90 114
100 44 9 117 2 150 -15z m145 5 c8 -14 -10 -11 -32 6 -18 13 -18 14 4 8 12 -3
25 -9 28 -14z m2523 -8 c16 -11 7 -16 -42 -25 -21 -4 -46 -10 -55 -13 -13 -5
-12 -2 4 20 20 27 64 36 93 18z m217 -1 c48 0 42 -16 -10 -29 -55 -13 -96 -14
-96 -2 0 15 43 42 58 36 8 -3 29 -5 48 -5z m-266 -76 c-13 -14 -110 -47 -118
-40 -3 4 4 16 16 29 15 16 33 22 66 23 36 1 44 -2 36 -12z m220 -1 c23 -7 -36
-35 -68 -32 -15 2 -33 0 -40 -4 -19 -12 -14 4 8 28 20 21 55 24 100 8z m-2339
-36 c21 -16 40 -53 32 -61 -3 -3 -28 -6 -54 -6 -57 0 -78 -20 -22 -21 38 0 93
-17 63 -18 -13 -1 -13 -2 0 -11 26 -16 -18 -25 -120 -24 -109 2 -180 18 -180
39 0 12 15 15 63 16 34 1 55 3 47 4 -8 2 -33 7 -55 11 l-40 8 35 6 c33 7 33 7
-13 9 -27 0 -46 5 -43 10 3 5 25 7 49 5 l42 -3 -50 13 -50 14 50 2 c28 0 68 5
90 9 61 13 138 12 156 -2z m2260 -17 c30 0 39 -14 15 -23 -7 -3 -35 -9 -61
-12 l-47 -8 17 27 c11 16 24 25 32 22 8 -4 28 -6 44 -6z m-197 -19 c-11 -11
-114 -51 -131 -51 -23 0 -14 20 16 38 30 18 133 29 115 13z m171 -61 c6 0 6
-3 0 -9 -10 -8 -125 -23 -125 -16 0 2 9 13 21 23 17 16 27 18 57 11 20 -5 41
-9 47 -9z m-251 -19 c5 0 3 -8 -4 -16 -7 -8 -16 -12 -21 -9 -5 3 -9 1 -9 -5 0
-11 -88 -27 -97 -17 -3 3 2 15 11 25 21 23 62 31 120 22z m195 -47 c11 -10
-12 -16 -71 -21 l-63 -4 22 19 c18 16 32 19 65 15 24 -3 45 -7 47 -9z m-2402
0 c-3 -3 -12 -4 -19 -1 -8 3 -5 6 6 6 11 1 17 -2 13 -5z m2357 -113 c89 -15
95 -26 58 -105 -62 -132 -280 -481 -369 -591 -13 -16 -151 -159 -306 -317
-155 -157 -300 -307 -323 -332 l-41 -46 -467 0 -468 0 -262 260 c-398 397
-455 473 -662 878 -102 199 -111 235 -66 247 83 22 2777 28 2906 6z m307 -68
c155 -162 299 -382 399 -608 49 -110 59 -145 41 -145 -5 0 -16 -2 -23 -5 -10
-4 -18 6 -26 32 -17 58 -93 209 -163 324 -75 126 -146 223 -239 328 -66 75
-79 99 -63 114 14 14 30 5 74 -40z m-3383 14 c4 -18 1 -21 -122 -168 -44 -52
-104 -132 -134 -178 -59 -90 -168 -297 -197 -373 -14 -39 -22 -48 -41 -48 -29
0 -29 1 -3 70 84 224 253 492 413 658 60 62 78 70 84 39z m3322 -283 c8 -23
24 -43 46 -56 40 -24 43 -35 10 -48 -14 -5 -33 -21 -42 -35 -11 -18 -19 -22
-24 -15 -6 9 -9 9 -15 0 -4 -7 -2 -16 5 -20 6 -4 10 -15 8 -24 -6 -32 -21 -21
-35 27 -10 35 -22 53 -43 65 -39 22 -38 39 5 59 23 11 38 27 46 50 14 43 25
42 39 -3z m-3334 -66 l22 -20 -22 -21 c-34 -33 -61 -54 -52 -39 4 7 1 12 -8
12 -9 0 -16 4 -16 8 0 5 -11 15 -25 22 l-25 13 35 33 c19 17 35 38 35 45 1 8
8 4 18 -9 9 -13 27 -33 38 -44z m102 -380 c-5 -13 -37 -20 -51 -11 -5 3 -3 9
4 14 20 13 51 11 47 -3z m3042 -104 c7 -7 28 -18 47 -25 l36 -12 -29 -15 c-48
-24 -64 -43 -70 -84 -8 -46 -20 -41 -29 12 -6 35 -13 44 -48 61 -38 20 -40 22
-22 35 10 8 24 14 31 14 13 0 38 28 39 44 1 6 5 25 10 41 l9 30 8 -44 c4 -24
12 -49 18 -57z m283 45 c10 -35 20 -48 50 -62 20 -10 37 -22 37 -25 0 -4 -15
-14 -32 -23 -34 -16 -40 -25 -61 -78 l-13 -35 -22 61 c-12 33 -28 61 -35 60
-32 -1 -57 4 -57 11 0 4 19 16 42 27 38 17 45 26 56 68 8 27 16 47 18 44 2 -2
10 -24 17 -48z m-3890 -90 c36 -39 34 -55 -4 -27 -23 17 -44 23 -85 23 -59 0
-65 6 -32 29 32 23 87 11 121 -25z m455 16 c-3 -3 -9 2 -12 12 -6 14 -5 15 5
6 7 -7 10 -15 7 -18z m252 -7 c0 -4 -9 -6 -20 -5 -23 1 -25 8 -8 25 9 9 14 9
20 -1 4 -6 8 -15 8 -19z m-470 -39 c0 -5 -4 -9 -10 -9 -5 0 -10 7 -10 16 0 8
5 12 10 9 6 -3 10 -10 10 -16z m587 -1 c23 -26 47 -68 41 -74 -5 -4 -78 81
-78 90 0 13 18 5 37 -16z m-397 -42 c0 -3 -4 -8 -10 -11 -5 -3 -10 -1 -10 4 0
6 5 11 10 11 6 0 10 -2 10 -4z m210 -20 c23 -14 22 -14 -31 -21 -68 -8 -91
-20 -69 -35 8 -5 31 -10 50 -10 54 -2 113 -14 117 -25 5 -17 -32 -34 -99 -44
-41 -7 -66 -7 -72 -1 -6 6 -20 10 -32 10 -31 0 -37 14 -24 55 23 71 99 104
160 71z m300 -132 c0 -50 -18 -57 -34 -12 -11 31 -2 58 19 58 11 0 15 -11 15
-46z m-257 -65 c-16 -16 -84 -37 -104 -32 -33 9 -20 22 29 28 26 4 52 8 57 10
21 7 29 5 18 -6z m-383 -23 c0 -21 -24 -26 -128 -25 -105 1 -143 8 -150 27 -3
9 31 12 137 12 114 0 141 -3 141 -14z m3968 -8 c3 -16 -5 -18 -55 -18 -54 0
-83 11 -83 32 0 5 30 8 67 6 55 -2 68 -6 71 -20z m-3372 -9 c10 -17 -13 -36
-27 -22 -12 12 -4 33 11 33 5 0 12 -5 16 -11z m2741 -21 c30 -28 38 -70 20
-105 -14 -25 -13 -30 5 -56 24 -34 19 -63 -18 -100 -33 -34 -79 -35 -111 -5
-23 21 -30 52 -15 62 5 3 16 -4 25 -15 20 -23 40 -24 61 -3 23 22 20 41 -9 60
-31 20 -34 60 -4 69 15 5 19 14 17 33 -4 33 -32 41 -59 16 -24 -21 -42 -8 -37
27 7 49 80 59 125 17z m-502 -2 c50 -50 41 -103 -29 -183 l-28 -33 35 0 c39 0
50 -10 41 -34 -5 -13 -23 -16 -90 -16 -52 0 -84 4 -84 10 0 6 30 45 66 86 51
59 65 81 62 102 -2 22 -9 28 -34 30 -20 2 -36 -4 -48 -17 -22 -24 -46 -17 -46
14 0 59 108 88 155 41z m274 -11 c48 -55 41 -96 -27 -167 l-36 -38 43 0 c38 0
42 -2 39 -22 -3 -21 -9 -23 -76 -26 -113 -5 -116 2 -38 88 65 73 78 104 54
128 -21 21 -45 13 -75 -25 -18 -21 -34 -33 -41 -29 -21 13 -13 55 19 91 25 28
38 35 69 35 31 0 44 -7 69 -35z m486 5 c35 -37 38 -92 7 -143 -21 -36 -16 -59
17 -83 13 -10 13 -14 2 -28 -17 -20 -31 -21 -31 -1 0 8 -5 15 -12 15 -6 0 -19
7 -29 16 -16 15 -19 14 -34 -15 -17 -35 -27 -38 -45 -16 -13 16 -8 36 22 77
10 14 8 20 -15 38 -34 27 -44 77 -23 118 31 61 94 71 141 22z m-3888 -40 c13
0 13 -2 -1 -15 -16 -17 -62 -20 -71 -6 -7 12 26 32 43 26 8 -3 20 -5 29 -5z
m440 -42 c-23 -43 -47 -61 -47 -35 0 18 24 39 33 30 4 -3 7 0 7 8 0 13 18 39
27 39 1 0 -8 -19 -20 -42z m373 28 c0 -21 -21 -31 -30 -15 -5 7 -6 17 -4 21 9
14 34 9 34 -6z m3460 0 c0 -18 -49 -27 -74 -14 -15 8 -16 12 -5 19 23 14 79
11 79 -5z m-4012 -18 c33 -33 -7 -118 -56 -118 -30 0 -72 35 -72 61 0 9 7 22
15 29 20 17 48 -6 41 -32 -3 -14 0 -18 12 -16 13 3 16 13 14 46 -2 35 1 42 16
42 10 0 23 -5 30 -12z m317 -17 c3 -5 1 -12 -5 -16 -13 -8 -50 3 -50 16 0 12
47 12 55 0z m133 -14 c2 -12 -3 -17 -17 -17 -12 0 -21 6 -21 13 0 31 32 34 38
4z m193 -97 c6 -16 17 -30 25 -30 19 0 18 -3 -13 -39 -33 -38 -41 -38 -53 -6
-5 14 -13 24 -17 23 -18 -6 -12 15 14 47 16 19 29 35 31 35 2 0 8 -13 13 -30z
m1319 0 c4 -7 11 -11 16 -10 5 1 10 -3 12 -9 2 -6 -3 -8 -12 -5 -12 5 -15 2
-10 -10 5 -13 -2 -16 -37 -17 -93 -3 -119 -5 -125 -12 -14 -14 6 -20 111 -31
96 -11 139 -26 122 -42 -3 -3 -93 -9 -199 -11 -106 -3 -195 -8 -198 -10 -3 -3
5 -12 17 -20 15 -10 55 -15 143 -16 77 -1 123 -6 128 -13 4 -7 16 -14 27 -16
11 -3 -11 -8 -50 -13 -66 -7 -90 -19 -79 -37 3 -4 14 -8 26 -8 14 0 18 -5 14
-15 -4 -10 1 -15 14 -15 13 0 20 -7 20 -20 0 -14 -12 -23 -48 -34 -58 -17
-125 -50 -168 -82 -17 -13 -35 -20 -38 -16 -4 3 -4 -1 0 -11 11 -29 -5 -19
-30 21 -16 23 -29 64 -36 107 -13 90 -24 110 -76 140 -55 32 -74 60 -74 106 0
52 7 66 49 95 l36 26 219 -5 c149 -4 221 -9 226 -17z m263 -29 c11 -17 19 -46
20 -65 1 -38 -28 -90 -45 -80 -6 4 -8 3 -5 -3 4 -6 -11 -22 -33 -37 -31 -20
-43 -36 -52 -71 -7 -25 -18 -45 -25 -45 -9 0 -11 8 -7 26 5 19 4 25 -5 20 -6
-4 -12 -19 -12 -34 -2 -24 -2 -24 -6 -4 -8 43 17 91 74 140 68 58 78 81 58
129 -8 19 -15 41 -15 48 0 24 35 8 53 -24z m-2067 -70 c-4 -5 -13 -8 -22 -4
-11 4 -12 8 -3 20 14 16 36 2 25 -16z m231 9 c-1 -22 -17 -28 -17 -7 0 12 9
27 16 27 2 0 2 -9 1 -20z m-1214 -86 l46 -7 -70 -33 c-71 -34 -119 -43 -119
-23 0 11 -85 8 -162 -6 -24 -5 -38 -3 -38 3 0 15 -55 25 -77 13 -10 -5 -30
-12 -45 -15 -36 -8 -82 -48 -102 -90 -14 -31 -16 -133 -16 -1032 l0 -997 25
-42 c38 -66 68 -75 240 -75 146 0 146 0 143 -22 -3 -23 -4 -23 -175 -23 l-171
0 -38 31 c-21 16 -47 48 -58 70 -21 39 -21 49 -24 1062 -2 989 -2 1023 17
1060 27 53 64 90 113 112 38 17 67 20 254 20 116 0 232 -3 257 -6z m5803 -9
c59 -17 109 -63 138 -125 21 -45 21 -55 24 -1010 2 -531 0 -989 -3 -1017 -9
-73 -56 -140 -120 -173 -47 -23 -60 -25 -197 -25 -80 0 -148 2 -151 5 -2 3 -8
15 -11 27 -7 21 -6 22 152 25 149 3 161 4 194 28 73 50 68 -33 68 1077 0 952
-1 1000 -19 1039 -20 44 -56 74 -109 92 -23 8 -200 12 -565 12 -357 1 -536 5
-544 12 -7 6 -13 19 -13 29 0 18 19 19 553 19 459 0 562 -3 603 -15z m-5313
-70 c182 -38 365 -194 462 -393 88 -180 125 -367 125 -625 0 -183 -16 -319
-51 -447 -54 -195 -164 -397 -208 -383 -14 4 -14 3 -1 -6 13 -10 5 -21 -50
-72 -82 -77 -174 -131 -270 -159 -63 -19 -92 -22 -175 -17 -120 5 -197 31
-300 99 -67 44 -153 132 -147 150 1 4 -3 7 -9 6 -6 -2 -34 36 -63 83 -125 206
-190 544 -166 871 21 292 86 484 220 651 167 208 391 294 633 242z m4299 -161
c15 -8 40 -31 55 -51 24 -32 28 -45 28 -104 0 -59 -4 -73 -30 -111 -61 -86
-203 -130 -251 -77 -19 21 -19 22 0 33 71 42 114 76 133 105 23 34 23 55 1 33
-15 -15 -73 -16 -100 -1 -11 6 -26 26 -34 46 -45 107 80 188 198 127z m-2803
6 c62 -12 151 -37 169 -48 14 -9 4 -39 -47 -142 -15 -30 -41 -92 -57 -137 -27
-77 -44 -104 -44 -68 0 8 -16 33 -36 55 -53 59 -100 67 -261 48 -11 -2 -19 -7
-16 -11 6 -10 -37 -58 -46 -53 -3 3 -7 -30 -9 -72 -4 -118 10 -135 201 -236
160 -86 255 -201 286 -344 36 -169 -17 -359 -135 -482 -136 -142 -337 -168
-546 -69 l-90 43 -49 -25 -48 -26 33 66 c18 36 57 126 86 199 29 72 54 132 56
132 2 0 22 -18 45 -41 101 -101 250 -119 331 -42 15 15 31 41 34 60 3 18 10
30 15 27 5 -3 6 1 3 9 -2 7 0 26 5 40 7 17 7 27 1 27 -6 0 -24 30 -41 68 -25
53 -51 86 -128 160 -52 50 -91 92 -86 92 6 0 -12 12 -40 26 -67 34 -117 84
-157 158 -31 58 -33 66 -33 166 0 88 4 113 23 154 79 172 245 275 443 276 48
0 109 -4 138 -10z m3724 -26 c100 -31 96 -21 42 -139 -18 -38 -38 -84 -46
-102 -7 -17 -17 -29 -21 -27 -4 3 -5 -1 -3 -8 3 -7 -3 -38 -13 -68 l-19 -55
-16 35 c-35 78 -89 110 -182 110 -92 0 -156 -43 -179 -121 -21 -71 -3 -130 54
-176 8 -6 66 -40 128 -74 171 -95 237 -163 281 -290 62 -183 12 -411 -121
-548 -143 -147 -353 -171 -576 -66 -40 19 -78 35 -84 35 -6 0 -26 -10 -46 -22
-19 -12 -33 -17 -30 -12 44 93 79 173 138 317 l32 77 42 -41 c57 -58 146 -99
214 -99 58 0 95 15 129 52 26 27 57 96 54 119 -1 8 8 24 19 34 11 10 20 23 20
29 0 6 -5 3 -11 -6 -12 -21 -39 -24 -39 -5 0 7 6 19 13 27 10 12 9 12 -6 0
-17 -13 -19 -12 -16 5 2 11 -4 31 -14 45 -9 13 -17 30 -17 37 0 7 -5 13 -11
13 -5 0 -7 6 -3 13 4 6 3 9 -1 4 -12 -10 -66 43 -58 57 3 6 3 8 -2 4 -4 -4
-38 22 -75 57 -37 36 -87 78 -111 93 -208 132 -224 423 -34 600 109 102 203
134 370 128 84 -3 131 -11 198 -32z m-2634 -15 c42 -12 89 -19 107 -16 l32 5
-52 -108 c-29 -60 -66 -147 -82 -194 -25 -76 -44 -107 -44 -75 0 6 -7 26 -16
45 -32 68 -207 100 -285 51 -65 -41 -84 -62 -121 -132 -50 -97 -72 -202 -71
-350 1 -192 40 -333 118 -422 110 -125 263 -128 374 -8 l40 43 25 -43 c49 -83
108 -139 86 -80 -7 18 -2 53 20 137 28 110 47 178 185 673 37 132 79 282 93
333 l25 93 -22 40 -23 40 374 -3 373 -3 57 -27 c111 -52 178 -138 231 -298 68
-202 31 -394 -102 -529 -53 -55 -53 -56 -41 -91 32 -95 254 -523 334 -642 l18
-27 -39 7 c-49 9 -356 9 -405 0 -32 -6 -38 -4 -38 10 0 9 7 26 15 36 34 45 9
150 -119 500 -40 108 -40 110 -27 102 11 -7 -3 60 -17 77 -5 7 -17 34 -27 60
-13 33 -22 46 -32 42 -8 -3 -19 -5 -24 -5 -5 0 -9 -174 -9 -427 0 -349 -2
-424 -13 -409 -11 15 -28 17 -142 14 l-130 -3 3 220 3 220 -113 -5 -112 -5
-12 -43 c-7 -23 -15 -57 -18 -75 -3 -17 -12 -66 -21 -107 -17 -78 -14 -114 12
-142 20 -22 24 -68 6 -68 -8 0 -12 3 -9 8 9 14 -266 14 -321 -1 l-53 -14 0 28
0 29 -58 -30 c-174 -88 -392 -52 -532 89 -97 98 -156 228 -202 446 -18 89 -22
140 -22 270 2 293 69 485 220 631 54 51 154 110 228 134 107 34 250 34 375 -1z
m-276 -451 c-6 -12 -33 -9 -33 3 0 5 5 7 10 4 6 -3 10 4 11 17 0 22 1 22 8 3
5 -11 7 -23 4 -27z m-10 -82 c-1 -40 1 -56 7 -46 7 11 9 6 7 -17 -2 -29 -3
-30 -19 -16 -21 19 -25 140 -4 140 8 0 11 -20 9 -61z m-106 -91 c0 -8 -4 -15
-9 -15 -10 0 -11 14 -1 23 9 10 10 9 10 -8z m123 -37 c0 -4 -4 -10 -10 -13 -6
-4 -7 1 -4 12 5 15 4 15 -4 3 -12 -17 -5 -33 10 -24 13 8 1 -465 -13 -482 -5
-6 -6 -14 -2 -17 3 -4 1 -7 -5 -7 -9 0 -12 76 -11 293 0 290 0 292 19 267 11
-14 20 -28 20 -32z m-110 -15 c0 -2 -4 -2 -9 0 -5 1 -8 -2 -7 -8 0 -5 4 -9 9
-7 4 1 7 -2 7 -8 0 -5 -4 -10 -9 -10 -6 0 -3 -16 5 -36 8 -20 10 -33 5 -29 -6
3 -11 12 -11 19 0 8 -7 19 -15 26 -20 16 -19 6 1 -25 13 -21 14 -28 4 -40 -10
-12 -10 -19 -2 -27 9 -9 12 -8 12 5 0 9 5 17 10 17 13 0 13 -2 -5 -36 -8 -16
-15 -23 -15 -16 0 6 -5 12 -12 12 -6 0 -1 -12 13 -26 l24 -26 -24 -19 c-13
-10 -18 -19 -12 -19 7 0 9 -4 6 -10 -3 -5 -13 -10 -22 -10 -13 0 -15 9 -10 47
3 27 1 56 -4 65 -8 14 -6 16 7 11 12 -4 15 -1 12 13 -2 10 -10 18 -17 16 -9
-2 -9 3 -1 18 6 11 16 17 22 14 6 -4 4 3 -5 17 -21 29 -21 39 -3 39 14 0 14
29 0 64 -6 16 -3 15 19 -5 15 -12 27 -24 27 -26z m1361 -180 c13 -16 12 -17
-3 -4 -10 7 -18 15 -18 17 0 8 8 3 21 -13z m-1355 -103 c0 -14 -5 -19 -16 -15
-13 4 -13 3 1 -7 14 -12 14 -16 -3 -43 -10 -16 -18 -27 -18 -23 0 3 -3 14 -7
24 -5 12 -3 15 6 9 10 -6 12 0 6 25 -5 23 -3 35 6 41 21 13 25 11 25 -11z
m-49 -32 c-3 -8 -6 -5 -6 6 -1 11 2 17 5 13 3 -3 4 -12 1 -19z m-1216 -764
c33 -16 36 -26 14 -44 -8 -7 -15 -19 -15 -26 0 -17 0 -17 -39 2 -71 35 -141
-24 -141 -118 0 -63 24 -114 63 -134 27 -14 33 -14 74 1 24 9 46 16 47 14 2
-2 9 -15 16 -28 10 -20 9 -26 -8 -43 -21 -22 -94 -35 -136 -24 -41 10 -92 62
-116 118 -39 92 -12 223 55 272 55 38 125 42 186 10z m327 -6 c79 -49 112
-203 63 -297 -41 -78 -76 -101 -155 -101 -96 0 -160 89 -161 219 0 59 5 85 22
117 47 88 145 115 231 62z m355 16 c26 -9 47 -20 47 -25 0 -20 -44 -68 -54
-60 -20 15 -64 21 -90 11 -46 -17 -68 -66 -64 -144 3 -62 7 -71 36 -97 37 -33
60 -36 109 -12 30 14 36 14 44 2 13 -20 11 -42 -5 -64 -10 -14 -29 -20 -77
-23 -55 -3 -69 0 -99 20 -128 87 -113 334 24 394 41 18 73 17 129 -2z m2474 0
c26 -9 49 -17 50 -18 2 -1 -5 -18 -15 -37 -16 -32 -19 -34 -42 -22 -14 7 -44
13 -67 13 -33 0 -45 -5 -54 -21 -15 -29 1 -43 76 -64 112 -32 162 -113 120
-195 -33 -63 -162 -91 -241 -54 -46 22 -48 27 -26 67 l18 35 28 -21 c15 -11
49 -22 75 -25 55 -5 85 18 79 65 -3 25 -10 30 -83 55 -92 31 -125 62 -125 118
0 46 23 78 74 101 51 23 72 23 133 3z m-2307 -79 c0 -47 3 -84 8 -84 4 1 41
38 82 84 73 81 76 83 123 84 26 0 47 -2 47 -7 0 -4 -38 -45 -85 -92 -47 -47
-85 -90 -85 -97 0 -7 29 -51 64 -97 36 -47 70 -94 76 -105 10 -20 8 -21 -32
-21 -46 1 -34 -12 -154 158 -10 14 -14 14 -28 3 -12 -10 -16 -32 -16 -87 l0
-74 -35 0 -35 0 0 210 0 210 35 0 35 0 0 -85z m618 42 l3 -37 -55 4 -56 5 0
-175 0 -174 -41 0 -41 0 2 118 c2 64 2 142 2 172 l-2 55 -55 -3 -55 -4 0 41 0
42 148 -3 147 -3 3 -38z m271 -19 c27 -75 111 -340 111 -351 0 -5 -17 -7 -37
-5 -34 3 -38 6 -49 43 l-11 40 -85 3 -86 3 -13 -43 c-13 -40 -17 -43 -51 -46
l-37 -3 48 143 c27 79 57 170 66 203 10 33 23 63 29 67 6 4 29 8 52 8 l40 0
23 -62z m369 52 c9 0 12 -40 12 -165 l0 -165 81 0 80 0 -3 -37 -3 -38 -112 0
-113 -1 0 209 0 209 23 -6 c12 -3 28 -6 35 -6z m599 0 c9 0 13 -43 15 -162 l3
-163 83 -3 83 -3 -7 -32 c-3 -18 -12 -35 -18 -40 -6 -4 -56 -6 -111 -5 l-100
3 -3 209 -2 208 22 -6 c13 -3 29 -6 35 -6z m-739 -202 l-3 -203 -25 1 c-14 1
-31 2 -38 3 -10 1 -12 44 -11 201 l1 200 39 0 39 0 -2 -202z m462 37 l0 -165
73 0 c41 0 76 -2 78 -5 3 -2 3 -20 1 -40 l-4 -35 -109 0 -109 0 0 205 0 205
35 0 35 0 0 -165z m-4211 146 c29 -19 -2 -31 -80 -31 -62 0 -79 3 -79 14 0 8
10 17 23 19 41 8 122 7 136 -2z m6159 0 c1 -1 2 -7 2 -15 0 -11 -80 -15 -454
-21 -250 -4 -459 -4 -465 0 -20 12 -11 34 17 38 20 4 885 1 900 -2z m-5988
-137 c0 -10 -6 -14 -15 -11 -8 4 -17 3 -19 -2 -6 -10 -235 -15 -259 -6 -9 4
-17 13 -17 21 0 11 29 14 155 14 136 0 155 -2 155 -16z m5970 2 c0 -23 -25
-26 -226 -26 -161 0 -194 2 -194 14 0 21 17 23 228 24 154 1 192 -2 192 -12z
m-4743 -51 c0 -22 -28 -26 -142 -23 -86 3 -100 5 -103 21 -3 15 8 17 121 17
104 0 124 -2 124 -15z m4133 -5 c0 -24 7 -23 -210 -20 -91 1 -169 6 -174 10
-25 24 13 30 195 30 182 0 189 -1 189 -20z m-5116 -116 c8 -22 1 -30 -33 -37
-60 -12 -82 -75 -40 -113 20 -18 59 -19 1253 -24 l1231 -5 3 -33 3 -33 -1228
3 c-1121 3 -1231 4 -1265 20 -91 41 -112 172 -34 219 39 24 101 25 110 3z
m5308 -23 c53 -60 32 -152 -45 -193 l-42 -23 -1222 -3 c-985 -2 -1223 0 -1223
10 0 7 3 23 6 35 l6 23 1218 2 c1182 3 1219 4 1239 22 24 22 28 77 7 95 -8 7
-30 15 -50 18 -40 6 -51 16 -42 40 5 12 18 15 63 11 48 -4 61 -10 85 -37z
m-4232 -25 c0 -20 -6 -25 -37 -30 -70 -11 -893 0 -905 12 -6 6 -8 18 -5 26 6
14 59 16 477 16 l470 0 0 -24z m3970 4 c0 -12 -9 -24 -23 -29 -35 -14 -387 -1
-387 14 0 31 25 35 217 35 187 0 193 -1 193 -20z m-2420 -191 c0 -34 -4 -58
-9 -54 -5 3 -12 1 -16 -5 -3 -5 0 -10 7 -10 10 0 13 -20 11 -81 -1 -45 -4 -84
-8 -87 -3 -3 -5 2 -5 11 0 10 -3 17 -7 17 -5 0 -6 -22 -5 -48 3 -37 -1 -53
-15 -67 -16 -17 -16 -18 0 -12 20 7 22 -3 5 -22 -11 -10 -8 -11 15 -6 18 5 27
3 27 -4 0 -7 -7 -11 -16 -9 -10 2 -19 -2 -21 -9 -3 -8 3 -11 15 -8 18 3 21 -3
24 -53 4 -56 -6 -87 -23 -76 -5 3 -9 0 -9 -6 0 -6 10 -15 23 -21 29 -13 63 0
111 42 21 17 36 28 35 23 -6 -21 14 -54 49 -77 39 -28 112 -61 112 -52 0 3
-12 10 -26 15 -14 6 -22 14 -19 20 4 6 -1 7 -11 3 -14 -5 -16 -3 -11 11 4 9 3
15 -2 11 -14 -8 -55 14 -71 38 -12 20 -12 21 3 9 9 -8 29 -12 44 -11 16 2 51
-10 83 -27 65 -34 76 -39 113 -48 51 -12 27 9 -54 48 -61 30 -87 49 -108 80
-45 67 -44 68 8 17 41 -40 71 -57 156 -90 58 -23 111 -41 118 -41 7 0 19 -5
27 -10 12 -7 11 -9 -5 -9 -11 0 -53 -9 -94 -20 -73 -21 -73 -21 -98 -1 -14 11
-31 20 -37 20 -6 -1 2 -8 18 -17 24 -13 27 -17 14 -24 -23 -13 -289 -39 -398
-39 -155 0 -527 51 -577 79 -8 4 14 16 59 30 155 50 243 104 311 191 l28 35
-7 -40 c-4 -22 -13 -52 -20 -66 -14 -29 -69 -76 -119 -102 -44 -24 -21 -21 26
3 55 29 115 85 146 137 22 39 26 58 33 192 7 132 10 153 30 178 33 42 88 85
95 74 8 -14 35 -2 35 15 0 8 2 14 5 14 3 0 5 -27 5 -61z m94 -334 c-6 -73 -24
-125 -52 -147 -14 -12 -14 -10 -2 12 9 17 15 78 18 185 5 193 23 249 34 110 4
-49 5 -121 2 -160z m-436 173 l-3 -23 -608 -3 c-626 -2 -678 1 -632 34 15 12
129 14 633 14 l613 0 -3 -22z m1848 9 c4 -4 2 -13 -5 -20 -9 -9 -150 -12 -614
-12 l-602 0 -3 23 -3 22 609 -2 c336 -2 614 -6 618 -11z m-1507 -154 c1 -7 -3
-13 -9 -13 -5 0 -10 17 -9 38 1 33 2 34 9 12 4 -14 8 -31 9 -37z m-431 -13 c1
0 2 -6 2 -14 0 -32 -60 -36 -516 -36 -249 0 -459 3 -468 6 -9 3 -16 15 -16 25
0 17 11 19 138 22 97 3 820 0 860 -3z m1545 1 c235 -1 247 -2 247 -20 0 -10
-7 -22 -16 -25 -9 -3 -228 -6 -488 -6 -394 0 -475 2 -492 14 -24 18 -11 33 31
38 17 2 129 2 250 1 121 -1 331 -2 468 -2z m-1113 -21 c0 -5 -4 -10 -10 -10
-5 0 -10 5 -10 10 0 6 5 10 10 10 6 0 10 -4 10 -10z m1601 -70 c5 0 9 -9 9
-20 0 -18 -7 -20 -70 -20 -63 0 -70 2 -70 19 0 16 8 21 48 24 26 2 53 2 60 0
8 -2 18 -3 23 -3z m-3133 -17 c-3 -15 -16 -19 -66 -21 -57 -3 -62 -1 -62 18 0
18 6 20 66 20 57 0 65 -2 62 -17z m1177 -268 c130 -14 208 -16 420 -12 237 6
312 13 455 43 32 7 34 6 21 -9 -12 -16 -9 -16 35 -11 27 4 58 11 69 17 16 7
18 7 8 -3 -18 -19 -183 -59 -312 -74 -352 -44 -818 -22 -1057 50 -88 26 -117
46 -89 61 11 6 64 0 153 -17 75 -15 209 -35 297 -45z m1025 55 c-20 -13 -33
-13 -25 0 3 6 14 10 23 10 15 0 15 -2 2 -10z m-75 -20 c3 -5 -3 -10 -14 -10
-12 0 -21 5 -21 10 0 6 6 10 14 10 8 0 18 -4 21 -10z m-1300 -110 c209 -61
379 -80 695 -80 124 0 263 4 310 10 206 25 430 84 492 130 29 22 51 18 76 -13
9 -11 8 -17 -6 -29 -92 -82 -436 -160 -767 -175 -153 -7 -430 10 -611 36 -173
26 -385 99 -424 146 -13 15 -12 20 9 36 22 18 24 18 71 -6 27 -14 97 -39 155
-55z"/>
<path d="M4285 7800 c3 -5 8 -10 11 -10 2 0 4 5 4 10 0 6 -5 10 -11 10 -5 0
-7 -4 -4 -10z"/>
<path d="M4316 7802 c8 -13 -18 -41 -34 -36 -14 5 -15 4 -2 -5 19 -13 61 23
44 38 -6 5 -9 6 -8 3z"/>
<path d="M4385 7486 c-31 -14 -44 -24 -35 -28 8 -2 21 1 28 9 8 7 17 11 20 9
4 -2 16 5 26 15 24 23 23 23 -39 -5z"/>
<path d="M3987 7933 c-5 -26 -4 -26 9 -8 16 22 18 35 5 35 -5 0 -11 -12 -14
-27z"/>
<path d="M4055 7939 c-11 -17 1 -21 15 -4 8 9 8 15 2 15 -6 0 -14 -5 -17 -11z"/>
<path d="M3975 7880 c-3 -6 1 -7 9 -4 18 7 21 14 7 14 -6 0 -13 -4 -16 -10z"/>
<path d="M3921 7692 c-6 -12 -11 -27 -11 -34 1 -7 8 0 16 15 9 16 13 31 11 34
-3 2 -10 -4 -16 -15z"/>
<path d="M4016 7693 c-6 -14 -5 -15 5 -6 7 7 10 15 7 18 -3 3 -9 -2 -12 -12z"/>
<path d="M3878 7665 c-3 -14 -1 -25 3 -25 5 0 9 11 9 25 0 14 -2 25 -4 25 -2
0 -6 -11 -8 -25z"/>
<path d="M3974 7656 c-3 -21 -4 -39 -1 -42 3 -4 9 10 13 30 3 21 4 39 1 42 -3
4 -9 -10 -13 -30z"/>
<path d="M3942 7652 c-1 -24 0 -25 9 -9 7 11 7 23 2 28 -5 5 -9 -3 -11 -19z"/>
<path d="M3930 7330 c0 -11 2 -20 4 -20 2 0 6 9 9 20 3 11 1 20 -4 20 -5 0 -9
-9 -9 -20z"/>
<path d="M4468 7313 c6 -2 18 -2 25 0 6 3 1 5 -13 5 -14 0 -19 -2 -12 -5z"/>
<path d="M4458 7283 c7 -3 16 -2 19 1 4 3 -2 6 -13 5 -11 0 -14 -3 -6 -6z"/>
<path d="M4334 7058 c-3 -4 11 -8 30 -8 20 0 36 5 36 10 0 12 -59 10 -66 -2z"/>
<path d="M4410 7060 c0 -5 5 -10 10 -10 6 0 10 5 10 10 0 6 -4 10 -10 10 -5 0
-10 -4 -10 -10z"/>
<path d="M4449 7060 c-1 -3 -1 -8 0 -12 2 -14 -137 -9 -142 5 -4 9 -8 8 -16
-3 -9 -12 -12 -13 -20 -1 -6 10 -10 10 -16 1 -6 -9 -10 -9 -16 1 -6 9 -9 10
-9 2 0 -7 -17 -11 -46 -11 -28 1 -40 4 -32 9 9 6 6 9 -10 9 -13 0 -20 -4 -17
-10 4 -6 -24 -10 -78 -10 -88 0 -157 -19 -157 -43 0 -7 17 -42 38 -78 22 -35
79 -134 127 -219 49 -85 105 -177 124 -205 86 -122 241 -296 445 -499 l221
-219 443 -1 444 -1 31 40 c17 22 137 148 268 280 237 241 280 287 355 380 78
97 344 517 344 543 0 6 -6 9 -14 6 -9 -3 -20 3 -28 15 -7 12 -22 21 -33 20
-18 0 -18 -1 3 -9 12 -5 22 -11 22 -12 0 -7 -271 -8 -320 -1 l-55 7 60 7 c52
5 47 6 -42 7 -77 2 -103 -1 -103 -10 0 -9 -4 -8 -10 2 -5 8 -10 10 -10 5 0
-10 -175 -12 -326 -4 -28 1 -56 -1 -63 -5 -6 -4 -17 -4 -24 1 -20 15 -89 16
-99 1 -7 -10 -11 -10 -15 0 -2 6 -11 12 -18 12 -7 0 -16 -6 -19 -12 -5 -10 -7
-10 -12 0 -3 6 -14 12 -25 12 -10 0 -19 -6 -19 -12 0 -9 -4 -8 -10 2 -8 12
-11 13 -19 1 -7 -11 -9 -11 -14 0 -4 10 -6 10 -6 2 -1 -15 -47 -17 -56 -3 -4
7 -13 7 -26 0 -13 -7 -19 -7 -19 -1 0 7 -49 9 -142 5 -314 -11 -343 -11 -355
-1 -9 6 -13 6 -13 -1 0 -7 -26 -9 -77 -6 -203 12 -393 19 -394 14z m51 -20 c0
-5 -7 -10 -15 -10 -8 0 -15 5 -15 10 0 6 7 10 15 10 8 0 15 -4 15 -10z m1643
-86 c22 -8 9 -44 -17 -44 -11 -1 -388 -2 -838 -3 -449 -1 -820 -5 -824 -10 -4
-4 -3 -11 2 -16 5 -5 368 -11 806 -14 438 -3 802 -8 809 -12 8 -6 7 -10 -5
-17 -9 -5 -21 -6 -26 -3 -6 3 -10 2 -10 -3 0 -5 -19 -9 -42 -10 -24 -1 -92 -5
-153 -9 -60 -3 -160 -7 -221 -7 -85 -1 -110 -4 -107 -13 3 -7 0 -13 -6 -13 -6
0 -11 6 -11 13 0 9 -3 8 -9 -2 -5 -8 -14 -10 -22 -6 -11 6 -11 5 -3 -4 9 -9
57 -13 168 -14 86 0 151 -4 145 -8 -7 -4 -19 -5 -27 -2 -10 4 -9 0 4 -15 22
-26 25 -27 18 -7 -5 11 1 15 25 15 23 0 31 -4 31 -18 0 -17 -14 -20 -152 -26
-84 -5 -171 -9 -193 -10 -22 -2 -60 -4 -85 -5 -26 0 -40 -5 -35 -10 6 -5 98
-12 205 -15 107 -4 230 -9 272 -12 76 -6 77 -7 55 -24 -23 -18 -108 -22 -882
-39 l-300 -7 322 -2 c308 -2 690 -16 763 -28 31 -5 32 -7 15 -17 -11 -5 -23
-14 -26 -19 -6 -9 -99 -16 -226 -17 -74 -1 -66 -17 10 -19 85 -3 102 -7 103
-23 2 -30 6 -33 14 -11 5 12 15 22 22 22 9 0 9 -3 0 -12 -7 -7 -8 -16 -3 -22
6 -7 1 -11 -15 -12 -13 -1 -24 3 -24 8 0 6 -7 7 -16 4 -11 -4 -14 -1 -10 12 5
16 2 18 -26 13 -26 -4 -28 -6 -10 -9 12 -2 22 -8 22 -13 0 -6 -4 -8 -9 -4 -5
3 -13 0 -17 -6 -5 -9 0 -10 14 -7 12 4 22 2 22 -3 0 -15 -53 -22 -92 -12 -42
11 -51 7 -15 -7 19 -7 19 -9 3 -9 -16 -1 -17 -3 -5 -18 13 -15 12 -15 -8 -2
-19 11 -45 7 -32 -5 10 -10 54 -10 52 0 -3 15 33 21 77 13 l35 -6 -30 -3 c-16
-1 -38 -2 -47 -1 -10 1 -18 -3 -18 -9 0 -8 15 -11 45 -8 32 4 42 2 36 -6 -5
-6 -27 -11 -50 -10 -22 0 -38 -3 -35 -8 3 -4 12 -8 20 -8 8 0 14 -9 14 -21 0
-11 -4 -17 -10 -14 -5 3 -10 -2 -11 -12 0 -10 -3 -13 -6 -5 -8 20 -22 14 -16
-8 3 -12 0 -20 -6 -20 -7 0 -9 5 -5 12 4 7 3 8 -4 4 -6 -4 -9 -13 -5 -21 3 -8
0 -15 -6 -15 -6 0 -8 -7 -4 -17 5 -12 2 -15 -10 -10 -10 4 -16 2 -14 -6 1 -7
-3 -11 -10 -10 -6 1 -14 -4 -17 -13 -4 -10 -2 -13 7 -8 6 4 -1 -7 -17 -24 -25
-26 -32 -30 -45 -19 -14 10 -14 10 -3 -5 11 -14 8 -22 -24 -58 -24 -26 -40
-37 -44 -30 -5 8 -9 7 -13 -4 -4 -9 -2 -16 4 -16 6 0 -20 -34 -58 -75 -37 -41
-73 -75 -79 -75 -6 0 -15 37 -22 89 -14 115 -56 201 -84 173 -6 -6 -3 -32 11
-77 12 -37 21 -94 21 -126 0 -56 -1 -59 -25 -59 -19 0 -25 5 -25 23 0 31 -25
110 -46 144 -9 15 -71 110 -137 211 -110 165 -147 208 -147 167 0 -17 67 -133
169 -294 72 -114 111 -194 111 -231 0 -31 -44 -26 -59 6 -18 41 -62 94 -77 94
-20 0 -17 -9 16 -59 38 -56 39 -71 3 -65 -31 5 -243 208 -243 232 0 7 -5 10
-11 6 -27 -16 -292 277 -394 436 -75 117 -80 128 -42 85 19 -22 33 -44 29 -49
-3 -5 0 -6 6 -2 13 8 -1 46 -16 46 -4 0 -15 14 -24 30 -10 17 -22 29 -28 28
-5 -2 -20 13 -31 32 l-21 35 21 -25 c11 -14 21 -29 21 -34 0 -5 2 -7 5 -4 10
10 -30 78 -42 73 -7 -2 -15 1 -19 7 -5 7 -2 8 6 3 8 -5 11 -3 8 6 -3 8 -11 14
-19 14 -8 1 -13 7 -11 14 1 7 -23 47 -54 88 -44 59 -53 77 -43 84 15 9 2118
13 2142 3z m187 -13 c0 -11 -35 -21 -72 -21 -27 0 -35 9 -21 23 10 10 93 8 93
-2z m200 -10 c-16 -31 -12 -35 11 -10 l20 24 -7 -25 c-4 -14 -7 -31 -7 -37 0
-9 -4 -9 -12 -3 -8 7 -12 2 -12 -20 0 -18 4 -27 11 -23 6 4 5 -1 -3 -11 -11
-13 -16 -14 -23 -4 -11 17 -30 -10 -23 -33 4 -12 -1 -15 -23 -14 -23 1 -28 -2
-27 -21 0 -23 15 -47 15 -25 0 7 5 9 10 6 14 -8 3 -25 -16 -25 -18 0 -44 24
-44 39 0 13 70 125 82 129 4 2 6 8 3 13 -4 5 5 20 19 34 30 30 41 32 26 6z
m60 -10 c0 -5 -7 -14 -15 -21 -16 -14 -18 -10 -9 14 6 17 24 22 24 7z m-310
-214 c-155 -225 -372 -493 -390 -482 -4 3 -14 -3 -21 -13 -13 -15 -12 -16 4
-3 9 7 17 9 17 4 0 -12 -40 -49 -48 -46 -4 2 -7 -3 -7 -11 0 -20 -121 -147
-137 -144 -7 2 -12 -3 -11 -9 2 -7 -2 -13 -9 -13 -6 0 -9 -3 -5 -6 8 -9 -16
-33 -27 -26 -5 3 -6 0 -3 -6 7 -10 -70 -95 -90 -99 -6 -1 20 44 59 100 38 56
73 101 79 100 5 -2 9 4 9 12 0 8 35 52 78 98 42 46 120 132 172 192 52 60 126
143 163 184 37 41 103 119 145 172 42 54 79 95 81 93 2 -2 -24 -46 -59 -97z
m-427 23 c-3 -11 -7 -20 -9 -20 -2 0 -4 9 -4 20 0 11 4 20 9 20 5 0 7 -9 4
-20z m30 0 c-3 -12 -8 -19 -11 -16 -5 6 5 36 12 36 2 0 2 -9 -1 -20z m550 -66
c-3 -8 -9 -14 -13 -14 -5 0 -12 -10 -15 -21 -5 -16 -9 -18 -15 -9 -5 8 1 21
17 34 23 20 24 23 9 35 -14 12 -16 11 -16 -7 0 -11 -7 -25 -16 -33 -9 -7 -13
-21 -10 -32 4 -15 2 -17 -7 -8 -18 18 -45 13 -57 -10 -7 -11 -9 -23 -7 -26 3
-2 8 5 12 16 4 12 15 21 26 21 11 0 17 -4 14 -10 -3 -5 -1 -10 5 -10 13 0 -5
-31 -50 -90 -114 -148 -355 -400 -383 -400 -10 0 -16 -4 -13 -9 5 -7 -13 -25
-79 -77 -11 -8 -13 -12 -5 -9 8 4 2 -4 -15 -18 -16 -14 -33 -23 -38 -20 -4 2
-6 0 -5 -5 2 -5 -14 -25 -34 -45 -55 -52 -48 -16 7 40 25 24 45 46 45 48 0 2
18 23 41 47 22 23 59 65 82 92 23 27 67 77 97 111 61 69 133 157 234 288 37
48 74 87 82 87 7 0 14 4 14 8 0 5 10 14 23 20 12 6 16 11 8 11 -8 1 -23 -6
-33 -16 -11 -10 -18 -12 -18 -4 0 6 7 14 15 17 8 4 15 10 15 15 0 6 8 21 17
35 l17 26 27 -32 c15 -17 25 -38 22 -46z m-393 -60 c0 -2 -9 -4 -21 -4 -11 0
-18 4 -14 10 5 8 35 3 35 -6z m-50 -65 c-14 -4 -36 -7 -49 -8 -35 -1 -14 17
24 21 39 5 57 -4 25 -13z m-83 -55 c-3 -3 -12 -4 -19 -1 -8 3 -5 6 6 6 11 1
17 -2 13 -5z m43 2 c0 -11 -19 -15 -25 -6 -3 5 1 10 9 10 9 0 16 -2 16 -4z
m-90 -62 c0 -2 -7 -4 -15 -4 -8 0 -15 4 -15 10 0 5 7 7 15 4 8 -4 15 -8 15
-10z m25 6 c3 -5 1 -10 -4 -10 -6 0 -11 5 -11 10 0 6 2 10 4 10 3 0 8 -4 11
-10z m-220 -20 c3 -5 1 -10 -4 -10 -6 0 -11 5 -11 10 0 6 2 10 4 10 3 0 8 -4
11 -10z m-53 -112 c-7 -7 -12 -8 -12 -2 0 14 12 26 19 19 2 -3 -1 -11 -7 -17z
m-15 -174 c-3 -3 -12 -4 -19 -1 -8 3 -5 6 6 6 11 1 17 -2 13 -5z m-67 -217 c0
-2 -15 -16 -32 -33 l-33 -29 29 33 c28 30 36 37 36 29z m150 -41 c0 -2 -7 -7
-16 -10 -8 -3 -12 -2 -9 4 6 10 25 14 25 6z"/>
<path d="M4100 6903 c0 -9 69 -125 151 -255 38 -59 67 -113 65 -120 -1 -7 -1
-9 2 -5 2 5 11 -1 19 -12 8 -12 11 -26 7 -33 -4 -6 -3 -8 3 -5 5 3 32 -24 59
-61 104 -143 205 -261 261 -302 32 -24 67 -51 77 -60 21 -16 -25 45 -119 161
-98 120 -259 342 -408 560 -74 109 -117 157 -117 132z"/>
<path d="M4220 6892 c0 -6 4 -12 9 -14 5 -1 31 -39 58 -83 27 -44 80 -129 117
-190 137 -221 440 -604 462 -582 16 16 -44 99 -286 396 -36 43 -91 121 -124
173 -173 277 -192 303 -214 306 -12 2 -22 -1 -22 -6z"/>
<path d="M4360 6875 c7 -8 16 -12 21 -9 13 8 1 24 -18 24 -13 0 -13 -3 -3 -15z"/>
<path d="M5435 6770 c3 -5 8 -10 11 -10 2 0 4 5 4 10 0 6 -5 10 -11 10 -5 0
-7 -4 -4 -10z"/>
<path d="M5650 6756 c0 -2 7 -9 15 -16 13 -11 14 -10 9 4 -5 14 -24 23 -24 12z"/>
<path d="M5726 6732 c-3 -5 1 -9 9 -9 8 0 12 4 9 9 -3 4 -7 8 -9 8 -2 0 -6 -4
-9 -8z"/>
<path d="M4519 6615 c5 -11 17 -29 26 -40 l16 -20 -10 20 c-5 11 -17 29 -26
40 l-16 20 10 -20z"/>
<path d="M5708 6523 c7 -3 16 -2 19 1 4 3 -2 6 -13 5 -11 0 -14 -3 -6 -6z"/>
<path d="M5485 6490 c3 -5 8 -10 11 -10 2 0 4 5 4 10 0 6 -5 10 -11 10 -5 0
-7 -4 -4 -10z"/>
<path d="M4868 6483 c12 -2 32 -2 45 0 12 2 2 4 -23 4 -25 0 -35 -2 -22 -4z"/>
<path d="M5313 6373 c26 -2 67 -2 90 0 23 2 2 3 -48 3 -49 0 -68 -1 -42 -3z"/>
<path d="M5476 6278 c3 -5 9 -7 12 -4 3 3 11 1 18 -5 13 -10 32 6 20 18 -3 4
-6 1 -6 -6 0 -7 -5 -9 -12 -4 -19 11 -39 13 -32 1z"/>
<path d="M5426 6232 c-3 -5 1 -9 9 -9 8 0 12 4 9 9 -3 4 -7 8 -9 8 -2 0 -6 -4
-9 -8z"/>
<path d="M5421 6178 c-1 -20 14 -24 25 -6 4 6 3 8 -4 4 -5 -3 -13 0 -15 6 -3
8 -6 6 -6 -4z"/>
<path d="M6485 6859 c-4 -6 -4 -13 -1 -16 3 -4 6 0 6 8 0 11 2 11 10 -1 8 -13
10 -12 10 3 0 19 -15 23 -25 6z"/>
<path d="M6457 6823 c-4 -3 -7 -13 -7 -22 1 -13 3 -13 11 2 11 19 8 33 -4 20z"/>
<path d="M5760 6095 c-7 -9 -8 -15 -2 -15 5 0 12 7 16 15 3 8 4 15 2 15 -2 0
-9 -7 -16 -15z"/>
<path d="M5720 6050 c-13 -11 -21 -22 -18 -25 2 -3 15 6 28 20 28 30 22 33
-10 5z"/>
<path d="M6384 6718 c3 -10 1 -18 -4 -18 -6 0 -10 -4 -10 -10 0 -5 4 -10 9
-10 14 0 20 26 9 41 -8 11 -9 10 -4 -3z"/>
<path d="M6319 6551 c-13 -16 -27 -27 -31 -25 -4 3 -5 -2 -2 -11 5 -12 12 -9
35 17 26 30 36 48 25 48 -2 0 -14 -13 -27 -29z"/>
<path d="M6241 6453 c-7 -8 -11 -16 -8 -19 2 -2 10 2 17 11 17 20 9 27 -9 8z"/>
<path d="M6740 6200 c-15 -9 -5 -46 16 -54 9 -4 18 3 24 20 6 14 10 27 10 28
0 8 -39 13 -50 6z"/>
<path d="M7032 6207 c-13 -15 -12 -51 3 -64 4 -5 5 -2 1 5 -5 8 0 12 13 12 29
0 34 15 13 40 -15 19 -19 20 -30 7z"/>
<path d="M6992 5788 c-17 -17 -15 -63 4 -79 33 -28 74 32 48 70 -17 24 -34 27
-52 9z"/>
<path d="M4947 5517 c-6 -15 98 -106 108 -95 2 2 -18 21 -44 43 -29 22 -47 44
-44 52 3 7 1 13 -5 13 -5 0 -12 -6 -15 -13z"/>
<path d="M5155 5390 c3 -5 8 -10 11 -10 2 0 4 5 4 10 0 6 -5 10 -11 10 -5 0
-7 -4 -4 -10z"/>
<path d="M3136 5142 c-3 -4 4 -9 15 -9 23 -2 25 3 4 10 -8 4 -16 3 -19 -1z"/>
<path d="M2871 5096 c-65 -22 -134 -73 -171 -128 -35 -51 -43 -59 -33 -30 3 9
-3 5 -15 -10 -12 -14 -22 -30 -22 -35 0 -4 4 -1 10 7 18 30 18 4 -1 -30 -14
-24 -19 -28 -15 -12 2 12 0 19 -5 16 -5 -3 -9 -15 -8 -27 4 -39 -1 -58 -11
-52 -10 6 -15 -28 -10 -69 1 -10 -2 -16 -7 -13 -4 3 -8 -11 -9 -31 0 -21 -6
-89 -13 -152 -15 -129 -9 -319 14 -449 41 -236 138 -404 271 -471 66 -33 176
-34 247 -2 145 65 251 265 294 552 23 160 14 442 -20 571 -27 102 -42 138 -89
207 -16 23 -27 46 -24 51 3 5 -2 8 -12 7 -9 0 -16 5 -14 12 1 6 -4 12 -11 12
-8 0 -22 9 -31 19 -53 58 -219 88 -315 57z m129 -221 c10 -65 29 -164 41 -221
l22 -104 51 -15 c28 -8 88 -24 134 -36 46 -12 82 -23 80 -25 -4 -4 -169 -46
-188 -48 -8 -1 -29 -9 -46 -18 -35 -19 -30 4 -74 -293 -17 -110 -34 -213 -38
-229 -9 -32 -6 -48 -58 314 -14 96 -29 181 -32 189 -8 15 -47 29 -179 62 l-92
23 42 13 c23 8 82 25 131 38 49 13 90 26 92 28 4 4 84 423 84 440 0 6 3 8 6 5
3 -3 14 -59 24 -123z"/>
<path d="M2843 4433 c9 -2 23 -2 30 0 6 3 -1 5 -18 5 -16 0 -22 -2 -12 -5z"/>
<path d="M2895 4420 c3 -5 8 -10 11 -10 2 0 4 5 4 10 0 6 -5 10 -11 10 -5 0
-7 -4 -4 -10z"/>
<path d="M2599 3503 c-13 -17 -13 -17 6 -3 11 8 22 16 24 17 2 2 0 3 -6 3 -6
0 -17 -8 -24 -17z"/>
<path d="M2615 3449 c-4 -6 -4 -13 -1 -16 3 -4 6 -1 6 6 0 7 5 9 12 5 7 -4 8
-3 4 4 -9 15 -13 15 -21 1z"/>
<path d="M2662 3424 c-7 -8 -8 -14 -3 -14 10 0 25 19 20 25 -2 1 -10 -3 -17
-11z"/>
<path d="M3266 3403 c-6 -14 -5 -15 5 -6 7 7 10 15 7 18 -3 3 -9 -2 -12 -12z"/>
<path d="M3189 3393 c-13 -16 -12 -17 4 -4 16 13 21 21 13 21 -2 0 -10 -8 -17
-17z"/>
<path d="M2890 3379 c0 -5 5 -7 10 -4 6 3 10 8 10 11 0 2 -4 4 -10 4 -5 0 -10
-5 -10 -11z"/>
<path d="M2884 3328 c-5 -7 44 -3 52 5 3 3 -7 4 -21 3 -15 0 -29 -4 -31 -8z"/>
<path d="M4227 4784 c3 -7 9 -14 14 -14 14 0 10 17 -5 23 -10 4 -13 1 -9 -9z"/>
<path d="M4446 4292 c-3 -5 1 -9 9 -9 8 0 12 4 9 9 -3 4 -7 8 -9 8 -2 0 -6 -4
-9 -8z"/>
<path d="M8190 5021 c0 -6 4 -13 10 -16 6 -3 7 1 4 9 -7 18 -14 21 -14 7z"/>
<path d="M8255 4999 c-4 -6 -5 -12 -2 -15 2 -3 7 2 10 11 7 17 1 20 -8 4z"/>
<path d="M7940 4416 c0 -2 7 -7 16 -10 8 -3 12 -2 9 4 -6 10 -25 14 -25 6z"/>
<path d="M5261 4904 c0 -11 3 -14 6 -6 3 7 2 16 -1 19 -3 4 -6 -2 -5 -13z"/>
<path d="M6312 4884 c0 -22 -14 -108 -31 -189 -17 -82 -31 -150 -31 -152 0 -2
-4 -2 -9 1 -5 4 -7 -2 -5 -12 6 -19 -22 -133 -33 -141 -5 -3 -9 -30 -10 -58
l-2 -53 69 0 70 0 -1 303 c0 166 -4 311 -8 322 -6 15 -8 10 -9 -21z"/>
<path d="M6636 4889 l-26 -21 2 -176 3 -177 58 2 c75 3 155 39 192 87 63 82
16 252 -81 292 -50 21 -116 18 -148 -7z"/>
<path d="M6196 4807 c3 -8 11 -14 19 -14 20 0 19 4 -5 17 -15 8 -18 8 -14 -3z"/>
<path d="M6235 4600 c3 -5 8 -10 11 -10 2 0 4 5 4 10 0 6 -5 10 -11 10 -5 0
-7 -4 -4 -10z"/>
<path d="M6126 4382 c-3 -5 1 -9 9 -9 8 0 12 4 9 9 -3 4 -7 8 -9 8 -2 0 -6 -4
-9 -8z"/>
<path d="M6162 4324 c-7 -8 -8 -14 -3 -14 10 0 25 19 20 25 -2 1 -10 -3 -17
-11z"/>
<path d="M5350 3680 c0 -5 5 -10 11 -10 5 0 7 5 4 10 -3 6 -8 10 -11 10 -2 0
-4 -4 -4 -10z"/>
<path d="M5337 3609 c7 -7 15 -10 18 -7 3 3 -2 9 -12 12 -14 6 -15 5 -6 -5z"/>
<path d="M5402 4030 c0 -14 2 -19 5 -12 2 6 2 18 0 25 -3 6 -5 1 -5 -13z"/>
<path d="M5285 4279 c-11 -17 1 -21 15 -4 8 9 8 15 2 15 -6 0 -14 -5 -17 -11z"/>
<path d="M4241 3323 c-28 -35 -34 -63 -29 -129 6 -71 35 -104 90 -104 70 0
110 72 93 170 -11 62 -38 90 -90 90 -35 0 -48 -5 -64 -27z"/>
<path d="M5701 3267 c-32 -95 -31 -99 32 -95 47 3 52 5 49 25 -6 42 -37 127
-48 130 -6 2 -21 -25 -33 -60z"/>
<path d="M8048 3253 c6 -2 18 -2 25 0 6 3 1 5 -13 5 -14 0 -19 -2 -12 -5z"/>
<path d="M5288 2840 c-12 -21 -13 -27 -3 -24 11 5 28 44 22 50 -1 2 -10 -10
-19 -26z"/>
<path d="M5292 2750 c0 -19 2 -27 5 -17 2 9 2 25 0 35 -3 9 -5 1 -5 -18z"/>
<path d="M5294 2443 c3 -6 2 -14 -4 -18 -5 -3 -10 -11 -10 -18 0 -6 7 -4 17 6
14 14 15 19 4 29 -9 9 -12 9 -7 1z"/>
<path d="M5161 2384 c-2 -18 -63 -80 -96 -97 -26 -14 -27 -16 -8 -17 32 0 117
80 110 105 -2 11 -5 15 -6 9z"/>
<path d="M5464 2289 c-3 -6 2 -18 12 -27 17 -16 17 -16 5 0 -7 9 -10 22 -6 28
3 5 4 10 1 10 -3 0 -8 -5 -12 -11z"/>
<path d="M5240 2261 c0 -5 5 -13 10 -16 6 -3 10 -2 10 4 0 5 -4 13 -10 16 -5
3 -10 2 -10 -4z"/>
<path d="M5508 2223 c6 -2 18 -2 25 0 6 3 1 5 -13 5 -14 0 -19 -2 -12 -5z"/>
<path d="M5820 2170 c0 -5 5 -10 11 -10 5 0 7 5 4 10 -3 6 -8 10 -11 10 -2 0
-4 -4 -4 -10z"/>
<path d="M5763 2153 c9 -2 23 -2 30 0 6 3 -1 5 -18 5 -16 0 -22 -2 -12 -5z"/>
<path d="M5102 8197 c-27 -29 -27 -35 3 -70 l25 -28 25 28 c29 34 30 41 6 71
-24 28 -32 28 -59 -1z"/>
<path d="M5401 8196 l-23 -25 22 -35 c12 -20 25 -36 28 -35 4 0 18 14 31 31
23 29 23 32 8 57 -21 35 -38 37 -66 7z"/>
<path d="M2485 5930 c-12 -20 6 -51 28 -48 31 4 31 52 0 56 -11 2 -24 -2 -28
-8z"/>
<path d="M8015 5930 c-9 -14 4 -50 18 -50 22 0 39 17 35 36 -4 21 -42 31 -53
14z"/>
<path d="M2754 2656 c-10 -26 4 -46 31 -46 23 0 26 4 23 28 -3 31 -44 45 -54
18z"/>
<path d="M7762 2661 c-23 -14 -10 -46 21 -49 26 -3 28 -1 25 25 -3 29 -23 39
-46 24z"/>
</g>
</svg>
